<svg width="14" height="13" viewBox="0 0 14 13" fill="none" xmlns="http://www.w3.org/2000/svg">
<path d="M7 9.7C7.16667 9.7 7.30556 9.64444 7.41667 9.53333C7.53889 9.41111 7.6 9.26667 7.6 9.1C7.6 8.93333 7.53889 8.79444 7.41667 8.68333C7.30556 8.56111 7.16667 8.5 7 8.5C6.83333 8.5 6.68889 8.56111 6.56667 8.68333C6.45556 8.79444 6.4 8.93333 6.4 9.1C6.4 9.26667 6.45556 9.41111 6.56667 9.53333C6.68889 9.64444 6.83333 9.7 7 9.7ZM6.4 7.3H7.6V3.3H6.4V7.3ZM7 12.9C6.12222 12.9 5.29444 12.7333 4.51667 12.4C3.73889 12.0667 3.05556 11.6111 2.46667 11.0333C1.88889 10.4444 1.43333 9.76111 1.1 8.98333C0.766667 8.20556 0.6 7.37778 0.6 6.5C0.6 5.61111 0.766667 4.78333 1.1 4.01667C1.43333 3.23889 1.88889 2.56111 2.46667 1.98333C3.05556 1.39444 3.73889 0.933333 4.51667 0.599999C5.29444 0.266666 6.12222 0.0999994 7 0.0999994C7.88889 0.0999994 8.71667 0.266666 9.48333 0.599999C10.2611 0.933333 10.9389 1.39444 11.5167 1.98333C12.1056 2.56111 12.5667 3.23889 12.9 4.01667C13.2333 4.78333 13.4 5.61111 13.4 6.5C13.4 7.37778 13.2333 8.20556 12.9 8.98333C12.5667 9.76111 12.1056 10.4444 11.5167 11.0333C10.9389 11.6111 10.2611 12.0667 9.48333 12.4C8.71667 12.7333 7.88889 12.9 7 12.9ZM7 11.7C8.44444 11.7 9.67222 11.1944 10.6833 10.1833C11.6944 9.17222 12.2 7.94444 12.2 6.5C12.2 5.05556 11.6944 3.82778 10.6833 2.81667C9.67222 1.80555 8.44444 1.3 7 1.3C5.55556 1.3 4.32778 1.80555 3.31667 2.81667C2.30556 3.82778 1.8 5.05556 1.8 6.5C1.8 7.94444 2.30556 9.17222 3.31667 10.1833C4.32778 11.1944 5.55556 11.7 7 11.7Z" fill="white"/>
</svg>
