<svg xmlns="http://www.w3.org/2000/svg" height="40px" viewBox="0 0 24 24" width="40px" fill="
#FFFFFF">
  <path d="M.01 0h24v24h-24V0z" fill="none"/>

  <!-- Group for the male figure, shifted left to create space -->
  <g transform="translate(-1.5, 0)">
    <!-- Male figure body -->
    <path d="M5.5 22v-7.5H4V9c0-1.1.9-2 2-2h3c1.1 0 2 .9 2 2v5.5H9.5V22h-4z"/>
    <!-- Male head -->
    <path d="M7.5 6c1.11 0 2-.89 2-2s-.89-2-2-2-2 .89-2 2 .89 2 2z"/>
  </g>

  <!-- Vertical divider line - now perfectly centered -->
  <rect x="11.5" y="0" width="1" height="24" fill="
#FFFFFF"/>

  <!-- Group for the female figure, shifted right to create space -->
  <g transform="translate(1.5, 0)">
    <!-- Female figure body -->
    <path d="M18 22v-6h3l-2.54-7.63C18.18 7.55 17.42 7 16.56 7h-.12c-.86 0-1.63.55-1.9 1.37L12 16h3v6h3z"/>
    <!-- Female head -->
    <path d="M16.5 6c1.11 0 2-.89 2-2s-.89-2-2-2-2 .89-2 2 .89 2 2z"/>
  </g>
</svg>
